PathFileType	4	(X/Y/Z)	Kaydara	
DataRate	CameraRate	NumFrames	NumMarkers	Units	OrigDataRate	OrigDataStartFrame	OrigNumFrames	
120.00	120.00	4	72	mm	120.00	135	268	
Frame#	Time	Hips			RightUpLeg			RightLeg			RightFoot			RightFoot_End			LeftUpLeg			LeftLeg			LeftFoot			LeftFoot_End			Spine			Spine1			Spine2			Spine3			Neck			Head			Head_End			RightShoulder			RightArm			RightForeArm			RightHand			RightHandThumb1			RightHandThumb2			RightHandThumb3			RightHandThumb3_End			RightInHandIndex			RightHandIndex1			RightHandIndex2			RightHandIndex3			RightHandIndex3_End			RightInHandMiddle			RightHandMiddle1			RightHandMiddle2			RightHandMiddle3			RightHandMiddle3_End			RightInHandRing			RightHandRing1			RightHandRing2			RightHandRing3			RightHandRing3_End			RightInHandPinky			RightHandPinky1			RightHandPinky2			RightHandPinky3			RightHandPinky3_End			LeftShoulder			LeftArm			LeftForeArm			LeftHand			LeftHandThumb1			LeftHandThumb2			LeftHandThumb3			LeftHandThumb3_End			LeftInHandIndex			LeftHandIndex1			LeftHandIndex2			LeftHandIndex3			LeftHandIndex3_End			LeftInHandMiddle			LeftHandMiddle1			LeftHandMiddle2			LeftHandMiddle3			LeftHandMiddle3_End			LeftInHandRing			LeftHandRing1			LeftHandRing2			LeftHandRing3			LeftHandRing3_End			LeftInHandPinky			LeftHandPinky1			LeftHandPinky2			LeftHandPinky3			LeftHandPinky3_End			
		X1	Y1	Z1	X2	Y2	Z2	X3	Y3	Z3	X4	Y4	Z4	X5	Y5	Z5	X6	Y6	Z6	X7	Y7	Z7	X8	Y8	Z8	X9	Y9	Z9	X10	Y10	Z10	X11	Y11	Z11	X12	Y12	Z12	X13	Y13	Z13	X14	Y14	Z14	X15	Y15	Z15	X16	Y16	Z16	X17	Y17	Z17	X18	Y18	Z18	X19	Y19	Z19	X20	Y20	Z20	X21	Y21	Z21	X22	Y22	Z22	X23	Y23	Z23	X24	Y24	Z24	X25	Y25	Z25	X26	Y26	Z26	X27	Y27	Z27	X28	Y28	Z28	X29	Y29	Z29	X30	Y30	Z30	X31	Y31	Z31	X32	Y32	Z32	X33	Y33	Z33	X34	Y34	Z34	X35	Y35	Z35	X36	Y36	Z36	X37	Y37	Z37	X38	Y38	Z38	X39	Y39	Z39	X40	Y40	Z40	X41	Y41	Z41	X42	Y42	Z42	X43	Y43	Z43	X44	Y44	Z44	X45	Y45	Z45	X46	Y46	Z46	X47	Y47	Z47	X48	Y48	Z48	X49	Y49	Z49	X50	Y50	Z50	X51	Y51	Z51	X52	Y52	Z52	X53	Y53	Z53	X54	Y54	Z54	X55	Y55	Z55	X56	Y56	Z56	X57	Y57	Z57	X58	Y58	Z58	X59	Y59	Z59	X60	Y60	Z60	X61	Y61	Z61	X62	Y62	Z62	X63	Y63	Z63	X64	Y64	Z64	X65	Y65	Z65	X66	Y66	Z66	X67	Y67	Z67	X68	Y68	Z68	X69	Y69	Z69	X70	Y70	Z70	X71	Y71	Z71	X72	Y72	Z72	

135	1.117	6446.805	859.65103	-201.189	6509.159348842514	854.0125983584841	-222.66732127235247	6403.302902836659	456.9891908537989	-258.9562039607911	6450.708125053801	64.19801805472106	-345.7996683927178	6404.907782262885	-26.065337262755232	-203.62337637489927	6392.595412438024	837.16698882413	-165.77550243983134	6262.415893803953	446.62561640818126	-92.76930678356295	6191.680913453164	82.52114670457976	94.8420134228093	6238.840239643612	34.23080225939538	270.44295116407426	6407.3873232280785	982.8340408843317	-260.8364865812467	6358.347866952842	1053.3314535413904	-304.41517576540025	6301.472346516715	1121.944797036652	-349.507207883852	6239.434210234405	1180.2977599707324	-392.3367216372763	6172.513955913274	1242.8954350653833	-434.17237907664105	6137.8739382086105	1318.8725317175656	-391.23884420319064	6115.00950816379	1409.0541756094074	-264.2641182245652	6207.589376476938	1231.1503451421504	-429.6850913703236	6265.1325760793425	1254.3675306343166	-462.08035835733733	6405.192980684611	1111.2256708539717	-446.467498421417	6508.534064003022	1167.1517345381985	-505.3455545903413	6506.111703833909	1197.7828042052017	-502.63582236507557	6504.957591274952	1218.753898909327	-510.61401205122166	6506.722646864727	1230.8297766426094	-516.8130402747678	6510.391620956294	1238.7339348183207	-522.5309867901534	6515.846259801078	1192.171306005738	-503.77805080261317	6533.30774861529	1218.250978779626	-507.7271615954371	6541.461536576192	1232.9718405152944	-515.3585889233972	6540.88894924199	1240.2780579291343	-521.9532321218722	6536.609458615098	1245.0804047033696	-528.6596246017218	6522.0351523814215	1184.2238149611078	-505.6216057878718	6542.415280769777	1205.3633189070824	-510.4692366393847	6552.067660874337	1220.2891758350897	-519.033184165544	6551.739135601445	1228.557987431849	-527.1028951777485	6547.232707862025	1233.5472525720452	-534.4960891947786	6526.022875852123	1177.966870468273	-506.7787068710443	6547.927230131522	1191.5492694016393	-511.99712584636814	6557.079156317956	1203.3624566048002	-519.6961213312798	6557.1546363821535	1210.7031004445284	-527.6045998461502	6553.103389774124	1215.0932214338277	-534.6151136310496	6529.633640007486	1169.8149613050814	-508.34922499735615	6552.160055056927	1177.334207877321	-513.9553806421659	6560.54533067944	1184.868085716526	-520.4640634617782	6561.111573481345	1189.290864941304	-526.398758634201	6557.817019430931	1192.6437001337347	-532.7045954320848	6180.768717564658	1215.0825224591385	-409.4698036590919	6143.261007743896	1157.0388778445088	-383.7319484737035	6264.66263168578	1095.2719629483402	-493.0918017318767	6393.296173547236	1146.908357430938	-428.4334792740919	6404.160726863341	1172.505203833036	-420.88388850066247	6420.14401368573	1182.4113345735677	-431.5539958946418	6430.7525997939365	1187.7951206260407	-442.1741527758813	6439.1498077089855	1190.9874400979916	-453.75624852058326	6402.7718751150105	1170.955442961124	-430.7646404118002	6417.5422121283755	1195.4519897450111	-449.8827668722628	6430.565349684566	1204.3155188586416	-467.7811636133803	6439.4474951015445	1204.6670810509913	-477.348656841765	6447.329197596754	1201.478234558454	-484.2154418230881	6400.967987737009	1165.5937088313801	-438.9924900543968	6414.398023225471	1186.589072870112	-462.0888748820991	6428.326357420931	1195.46380037893	-482.6489587058821	6438.906777123108	1195.5054028123434	-494.68574444478475	6447.464885089848	1191.8302524694948	-502.43938040590206	6399.288284962142	1161.258597168989	-444.2956076093435	6409.783253149557	1176.5398567781378	-469.53372009827507	6421.613646014264	1183.426384238635	-488.4699340682915	6431.654889521965	1183.0157820333427	-500.6199027020412	6439.623756430634	1179.3466174584946	-508.16594476329664	6397.147687575734	1154.9374626051795	-450.0271252171546	6405.3636098938905	1165.3262557524397	-476.641207481057	6414.308385975969	1169.4494136594478	-493.27974909244654	6421.376826356178	1168.476893632561	-502.85555417881994	6428.288795342363	1164.8392768083074	-509.9507871945939
136	1.125	6446.805	859.65103	-201.189	6509.5553930509295	853.9921257311787	-222.88299212894103	6403.177873921646	457.03842361744097	-259.24646139641686	6450.800912642681	63.88735407717876	-345.41634352443043	6404.571582864344	-26.163182935550463	-202.90854807400217	6392.197919788714	837.1917068037336	-165.54478535666877	6261.924198711713	446.72202152435204	-92.28407216258903	6191.515842315615	82.32250884314269	94.94657206623339	6238.792788067489	33.98724041513894	270.57203416135906	6407.369263742447	982.8163608054537	-260.8894802629188	6358.287426235615	1053.259528915014	-304.5318043827116	6301.370794006705	1121.8260722952064	-349.6908761361189	6239.258903550347	1180.0856550855526	-392.5940634191067	6172.260835531381	1242.5869647343643	-434.52123626829876	6137.398481966738	1318.4613588738157	-391.5906550088971	6114.516618265267	1408.4701808453124	-264.47359391916063	6207.479125556407	1230.8798385865537	-430.1889055925036	6265.479414479093	1253.9596822034005	-463.4522331712091	6404.774754333412	1109.395033511038	-448.5495666878433	6507.946444582696	1163.8816711048123	-508.5911293159468	6505.625007299061	1194.2697768694463	-506.1085813560998	6504.342557563132	1215.036019208979	-514.3441259940424	6505.999283996023	1226.9802735773917	-520.709250305552	6509.561733245007	1234.784143939384	-526.554435159345	6515.319411686717	1188.671165603902	-507.22094431123406	6532.723177724326	1214.459125060576	-511.4387709996815	6540.737776293993	1229.0003908676433	-519.2767303047267	6540.044222362696	1236.221448291668	-526.000336309117	6535.641381888389	1240.9711797669734	-532.8138502998765	6521.454052038003	1180.764956195157	-509.0203746814233	6541.748562595867	1201.6422544902248	-514.1062302660036	6551.2419645154705	1216.3785589493489	-522.8888758350245	6550.764092766683	1224.5477102553696	-531.1109751977425	6546.12104280052	1229.4809030263502	-538.6198237802321	6525.405789445331	1174.5443977353507	-510.13921380368106	6547.204720035749	1187.9227395307287	-515.5372407137625	6556.2109538271425	1199.5776922823356	-523.4196645233427	6556.138592737765	1206.8259127030146	-531.4713156369849	6551.9570932647475	1211.16506818026	-538.5887644761146	6528.969895961343	1166.444637986686	-511.6596650467915	6551.3737536146355	1173.8080300581128	-517.3990027336353	6559.63169946673	1181.2269809430852	-524.0425698957489	6560.0849474535	1185.588045161399	-530.0758918624587	6556.672041562173	1188.8990130917625	-536.4731153922284	6180.435423594818	1214.8169921720958	-409.5869493865681	6142.477559192924	1156.5474797534207	-383.0313992116063	6263.43253507155	1093.653548687137	-493.8261151265555	6393.308388886285	1143.933593949956	-430.0611264292859	6403.952923378991	1169.3989798776297	-422.73942026079357	6419.87525551838	1179.2633875366741	-433.6807250632985	6430.449701159114	1184.614281598717	-444.4717265350979	6438.825555343732	1187.7758988967798	-456.1808346225238	6402.556326712092	1167.8104276368153	-432.569744901524	6417.084502477787	1192.0887668995285	-451.92148000477533	6430.031752310631	1200.8697734793723	-470.0184904879665	6438.929587594992	1201.2281428309539	-479.7257965626733	6446.866683715851	1198.0841286332407	-486.7193229604115	6400.787868421177	1162.449150398791	-440.74217263650644	6414.000844334868	1183.2319087305648	-464.03642432002084	6427.851945967184	1192.0174423987432	-484.8052097260809	6438.453970763593	1192.0676677018466	-497.00682334440506	6447.073990380204	1188.4417714675033	-504.8972651815038	6399.138441497565	1158.119157287968	-445.99973602347455	6409.46242849093	1173.2120630802333	-471.37435296300487	6421.231556747843	1180.0220660295563	-490.48396210777133	6431.296854032069	1179.6204278685468	-502.78840113866255	6439.325456502775	1175.9978809788145	-510.4609335825517	6397.047115607526	1151.8163291303724	-451.67542692562216	6405.133376898658	1162.0409885597296	-478.37890139049694	6414.039288346265	1166.1055944404677	-495.14242295335885	6421.130204758879	1165.140931477087	-504.8241908241907	6428.097927665292	1161.5453692603958	-512.0276128995957
137	1.133	6446.805	859.65103	-201.189	6509.962110048913	853.9680412122057	-223.11594184806503	6403.048420491221	457.0838478683905	-259.55535236991375	6450.92443663867	63.56697707905738	-345.04489682365033	6404.257332998256	-26.264144670320512	-202.19027910776165	6391.789840319451	837.2194400523136	-165.297999103433	6261.43660284347	446.8169701914465	-91.78166359221427	6191.3710652772015	82.10316424487438	95.04111623878116	6238.769993254779	33.732329732946226	270.6936394103237	6407.350156135821	982.8014990616294	-260.9361467998302	6358.2261082716395	1053.1910091447883	-304.6429014807872	6301.268373872985	1121.7106808669378	-349.87105834720325	6239.083272604851	1179.8768809481924	-392.8522056927157	6172.007609987619	1242.28152907985	-434.8761512691064	6136.910299208034	1318.0486351313584	-391.9513859216763	6114.00853037912	1407.8792651405759	-264.6867725631645	6207.3735279324665	1230.6098384196303	-430.7068070487603	6265.848108581386	1253.5339380365276	-464.88233989285675	6404.312990302632	1107.4681300239101	-450.7420519302052	6507.318481379804	1160.3651021406308	-512.0412613248556	6505.122490070237	1190.494080470604	-509.8013381058943	6503.718851034912	1211.0416193050235	-518.3132384010482	6505.2689642073665	1222.843606914041	-524.8575087995323	6508.723528620793	1230.5374632340777	-530.8406554334913	6514.76835744742	1184.9024068915774	-510.88445120440866	6532.122384336009	1210.3650160911375	-515.3954991296808	6539.9977000364615	1224.7080354614604	-523.4578356566134	6539.18205808904	1231.8383719068195	-530.3201803453014	6534.654222328366	1236.5349553878168	-537.2480179712869	6520.83932736217	1177.0361630910245	-512.6384464077133	6541.05091437409	1197.6177340804109	-517.985719397223	6550.383960446747	1212.1440760605876	-527.0062842975815	6549.754777104281	1220.2068298431282	-535.3924455907224	6544.973006910198	1225.0833537238316	-543.0247705116851	6524.748258638092	1170.8518577286234	-513.71746797318	6546.4383699367945	1183.995804900872	-519.3145249666146	6555.296402033637	1195.4747273760827	-527.3968369640098	6555.073609381972	1202.624022408817	-535.6027649164214	6550.759555089615	1206.9116498997057	-542.8344293842899	6528.257319298915	1162.8055533221707	-515.185383784313	6550.53046266892	1169.985853332902	-521.0741888438224	6558.657042485455	1177.2757498258445	-527.8652782658576	6558.994425714798	1181.5704158729895	-534.0050640645989	6555.460564549992	1184.8390524655429	-540.4999726935671	6180.098040745887	1214.5581047419166	-409.69807272405734	6141.671833461691	1156.0592529476753	-382.2791690807444	6262.132913428717	1091.9736131576701	-494.57702113059685	6393.323653574691	1140.773700911018	-431.792121079513	6403.733212668416	1166.1033016421495	-424.7269317405179	6419.587018025247	1175.9163517543598	-435.9591308981406	6430.121743697148	1181.2255267499866	-446.9321592274536	6438.4713307505035	1184.347271542658	-458.7754334675633	6402.325260602325	1164.467674758278	-434.5008985939547	6416.586702025272	1188.5019623391404	-454.10924602844705	6429.447054640434	1197.1840389492854	-472.4180545160686	6438.359234802978	1197.543611299874	-482.2720996880955	6446.3543209656345	1194.4428912095245	-489.3972434382596	6400.592543154828	1159.102069297187	-442.6100755834909	6413.564658530822	1179.6444255861325	-466.120397410408	6427.326642496069	1188.3223160489526	-487.11115990958206	6437.948711364802	1188.3741412142963	-499.48542446883835	6446.633513561499	1184.7956887678874	-507.5177481276487	6398.974170665874	1154.774438555603	-447.8159833932359	6409.106320805346	1169.6515844808796	-473.33817091430967	6420.803994911358	1176.368468931179	-492.63158164592045	6430.891930297903	1175.9687479053161	-505.09741857973455	6438.98301041468	1172.3909873411815	-512.9009209982938	6396.934267042362	1148.4877646337015	-453.42801752143174	6404.8728259705285	1158.5217010683684	-480.2262701733792	6413.732069365151	1162.5137858105636	-497.1212395131387	6420.8446014182855	1161.5515103136618	-506.9131208381303	6427.8706063915615	1157.9961907574352	-514.2281808879858
138	1.142	6446.805	859.65103	-201.189	6510.377865779454	853.9400329365232	-223.36584328879337	6402.914756077659	457.1248831339474	-259.88196487004404	6451.078964336053	63.23787643426961	-344.6869904448002	6403.967019709977	-26.368039740714345	-201.47137426725038	6391.37278292056	837.2505103389818	-165.0354465299409	6260.954517547649	446.91084236905306	-91.26248129211095	6191.246862821212	81.86404293313483	95.12537356085961	6238.7722672425725	33.46638588759753	270.8071192347783	6407.330210185513	982.7894324804919	-260.97661038210737	6358.164252632551	1053.1260109424243	-304.7484338854553	6301.16558174237	1121.5989385474275	-350.04750474810294	6238.907983253413	1179.6720377218917	-393.11058667122654	6171.755117798422	1241.980011674662	-435.23618614059137	6136.410635632733	1317.6354024924856	-392.3201665560136	6113.486500296073	1407.2829627770975	-264.90322954390047	6207.272828217904	1230.340941422203	-431.2374824264919	6266.236804023941	1253.0907020401219	-466.36679766769043	6403.807188743427	1105.449947056234	-453.03696309228474	6506.648039490153	1156.6130649286192	-515.683112212438	6504.601184953559	1186.4675364477228	-513.7004829521992	6503.083478878427	1206.7832380582167	-522.5067458737934	6504.528773658542	1218.4328231979066	-529.2425398438571	6507.874241898897	1226.0073693874358	-535.3738277552112	6514.190337445854	1180.8769762561806	-514.7549767718767	6531.502286545441	1205.9819133378705	-519.5825997031296	6539.2383388307635	1220.1088223683935	-527.8862733051802	6538.299688891347	1227.1431866903556	-534.896609449952	6533.645467661086	1231.7862250717449	-541.9455583025582	6520.188509274141	1173.0493521072597	-516.4623154451044	6540.319709761128	1193.3029406726405	-522.0931235687553	6549.491185360825	1207.59976013114	-531.3698783493954	6548.708987442644	1215.5497489533873	-539.9311514336714	6543.786687601465	1220.369153828652	-547.6943244841424	6524.048024998027	1166.9011138229494	-517.5000570074507	6545.6259549665165	1179.781422615291	-523.3146859290222	6554.333459136266	1191.0672492494853	-531.612534734073	6553.957919118796	1198.1114680069554	-539.9832513919766	6549.509289701972	1202.3471400342332	-547.335993351939	6527.493926199	1158.9094586446722	-518.9131036399436	6549.628388795504	1165.8803689828044	-524.9669392481422	6557.619776687971	1173.027647132295	-531.9175702518994	6557.838656369982	1177.251477630706	-538.1712398451796	6554.181503751344	1180.477432471147	-544.7697696660579	6179.757871651004	1214.3067936491543	-409.80293435539085	6140.847024871797	1155.5766126322292	-381.4771489420992	6260.767127271397	1090.237039574273	-495.34069471087713	6393.339403973709	1137.4375670247157	-433.61943898983867	6403.499696505273	1162.6272425955433	-426.83827429155536	6419.277594306539	1172.3794526708873	-438.38001010091716	6429.767161542684	1177.6382469435216	-449.5455841315357	6438.085692305892	1180.7111377745425	-461.52968603583196	6402.0769311083	1160.9365164759558	-436.55010213824886	6416.048068805334	1184.7016850494479	-456.43684824347577	6428.810873696218	1193.268814551663	-474.9698034925176	6437.7360063462975	1193.624037071531	-484.97703757159826	6445.791457215468	1190.5649863375945	-492.2383092592643	6400.38023638824	1155.5619255526549	-444.5884356731767	6413.088653192735	1175.8369103754824	-468.33197128431016	6426.7500184927985	1184.389148326174	-489.5571098047347	6437.390509565877	1184.4356190716396	-502.11129041070967	6446.142720857911	1180.9027086806018	-510.2901802696959	6398.7936538971435	1151.2339735889134	-449.7367844899786	6408.713947974327	1165.8687637470555	-475.4168312448352	6420.330303826311	1172.4763324190412	-494.9037235075306	6430.439397985067	1172.0715548943217	-507.5373676066796	6438.595465667121	1168.536666655477	-515.4759608738287	6396.807215518002	1144.9613465825178	-455.2775944240715	6404.580744214504	1154.7787486583193	-482.17546002739573	6413.385758478484	1158.684677790145	-499.2078252362172	6420.518990516572	1157.7193818193418	-509.1136226651907	6427.605594959718	1154.2024244947609	-516.5434690975035
